<?xml version="1.0" encoding="utf-8" standalone="no"?>
<!DOCTYPE svg PUBLIC "-//W3C//DTD SVG 1.1//EN"
  "http://www.w3.org/Graphics/SVG/1.1/DTD/svg11.dtd">
<!-- Created with matplotlib (http://matplotlib.org/) -->
<svg height="360pt" version="1.1" viewBox="0 0 360 360" width="360pt" xmlns="http://www.w3.org/2000/svg" xmlns:xlink="http://www.w3.org/1999/xlink">
 <defs>
  <style type="text/css">
*{stroke-linecap:butt;stroke-linejoin:round;}
  </style>
 </defs>
 <g id="figure_1">
  <g id="patch_1">
   <path d="
M0 360
L360 360
L360 0
L0 0
z
" style="fill:#ffffff;"/>
  </g>
  <g id="axes_1">
   <g id="patch_2">
    <path d="
M57.335 313.24
L344.232 313.24
L344.232 12.96
L57.335 12.96
z
" style="fill:#3b444b;"/>
   </g>
   <g id="matplotlib.axis_1">
    <g id="xtick_1">
     <g id="line2d_1">
      <path clip-path="url(#p9ea7671fb9)" d="
M65.1813 313.24
L65.1813 12.96" style="fill:none;stroke:#696969;stroke-dasharray:1.000000,3.000000;stroke-dashoffset:0.0;stroke-width:0.5;"/>
     </g>
     <g id="line2d_2">
      <defs>
       <path d="
M0 0
L0 4" id="m741efc42ff" style="stroke:#000000;stroke-width:0.5;"/>
      </defs>
      <g>
       <use style="stroke:#000000;stroke-width:0.5;" x="65.1813484372" xlink:href="#m741efc42ff" y="313.24"/>
      </g>
     </g>
     <g id="line2d_3">
      <defs>
       <path d="
M0 0
L0 -4" id="m93b0483c22" style="stroke:#000000;stroke-width:0.5;"/>
      </defs>
      <g>
       <use style="stroke:#000000;stroke-width:0.5;" x="65.1813484372" xlink:href="#m93b0483c22" y="12.96"/>
      </g>
     </g>
     <g id="text_1">
      <!-- 0 -->
      <defs>
       <path d="
M3.60938 32.7188
Q3.60938 44.0469 7.03125 52.2188
Q10.4531 60.4062 16.1094 64.4062
Q20.5156 67.5781 25.2031 67.5781
Q32.8125 67.5781 38.875 59.8125
Q46.4375 50.2031 46.4375 33.7344
Q46.4375 22.2188 43.1094 14.1562
Q39.7969 6.10938 34.6406 2.46875
Q29.5 -1.17188 24.7031 -1.17188
Q15.2344 -1.17188 8.9375 10.0156
Q3.60938 19.4375 3.60938 32.7188
M13.1875 31.5
Q13.1875 17.8281 16.5469 9.1875
Q19.3438 1.90625 24.8594 1.90625
Q27.4844 1.90625 30.3125 4.26562
Q33.1562 6.64062 34.625 12.2031
Q36.8594 20.6094 36.8594 35.8906
Q36.8594 47.2188 34.5156 54.7812
Q32.7656 60.4062 29.9844 62.75
Q27.9844 64.3594 25.1406 64.3594
Q21.8281 64.3594 19.2344 61.375
Q15.7188 57.3281 14.4531 48.625
Q13.1875 39.9375 13.1875 31.5" id="TimesNewRomanPSMT-30"/>
      </defs>
      <g transform="translate(63.2540828122 328.489375)scale(0.09 -0.09)">
       <use xlink:href="#TimesNewRomanPSMT-30"/>
      </g>
     </g>
    </g>
    <g id="xtick_2">
     <g id="line2d_4">
      <path clip-path="url(#p9ea7671fb9)" d="
M119.86 313.24
L119.86 12.96" style="fill:none;stroke:#696969;stroke-dasharray:1.000000,3.000000;stroke-dashoffset:0.0;stroke-width:0.5;"/>
     </g>
     <g id="line2d_5">
      <g>
       <use style="stroke:#000000;stroke-width:0.5;" x="119.859734759" xlink:href="#m741efc42ff" y="313.24"/>
      </g>
     </g>
     <g id="line2d_6">
      <g>
       <use style="stroke:#000000;stroke-width:0.5;" x="119.859734759" xlink:href="#m93b0483c22" y="12.96"/>
      </g>
     </g>
     <g id="text_2">
      <!-- 200 -->
      <defs>
       <path d="
M45.8438 12.75
L41.2188 0
L2.15625 0
L2.15625 1.8125
Q19.3906 17.5312 26.4219 27.4844
Q33.4531 37.4531 33.4531 45.7031
Q33.4531 52 29.5938 56.0469
Q25.7344 60.1094 20.3594 60.1094
Q15.4844 60.1094 11.5938 57.25
Q7.71875 54.3906 5.85938 48.875
L4.04688 48.875
Q5.28125 57.9062 10.3281 62.7344
Q15.375 67.5781 22.9531 67.5781
Q31 67.5781 36.3906 62.4062
Q41.7969 57.2344 41.7969 50.2031
Q41.7969 45.1719 39.4531 40.1406
Q35.8438 32.2344 27.7344 23.3906
Q15.5781 10.1094 12.5469 7.375
L29.8281 7.375
Q35.1094 7.375 37.2344 7.76562
Q39.3594 8.15625 41.0625 9.34375
Q42.7812 10.5469 44.0469 12.75
z
" id="TimesNewRomanPSMT-32"/>
      </defs>
      <g transform="translate(113.367078509 328.489375)scale(0.09 -0.09)">
       <use xlink:href="#TimesNewRomanPSMT-32"/>
       <use x="50.0" xlink:href="#TimesNewRomanPSMT-30"/>
       <use x="100.0" xlink:href="#TimesNewRomanPSMT-30"/>
      </g>
     </g>
    </g>
    <g id="xtick_3">
     <g id="line2d_7">
      <path clip-path="url(#p9ea7671fb9)" d="
M174.538 313.24
L174.538 12.96" style="fill:none;stroke:#696969;stroke-dasharray:1.000000,3.000000;stroke-dashoffset:0.0;stroke-width:0.5;"/>
     </g>
     <g id="line2d_8">
      <g>
       <use style="stroke:#000000;stroke-width:0.5;" x="174.538121081" xlink:href="#m741efc42ff" y="313.24"/>
      </g>
     </g>
     <g id="line2d_9">
      <g>
       <use style="stroke:#000000;stroke-width:0.5;" x="174.538121081" xlink:href="#m93b0483c22" y="12.96"/>
      </g>
     </g>
     <g id="text_3">
      <!-- 400 -->
      <defs>
       <path d="
M46.5312 24.4219
L46.5312 17.4844
L37.6406 17.4844
L37.6406 0
L29.5938 0
L29.5938 17.4844
L1.5625 17.4844
L1.5625 23.7344
L32.2812 67.5781
L37.6406 67.5781
L37.6406 24.4219
z

M29.5938 24.4219
L29.5938 57.2812
L6.34375 24.4219
z
" id="TimesNewRomanPSMT-34"/>
      </defs>
      <g transform="translate(168.018746081 328.489375)scale(0.09 -0.09)">
       <use xlink:href="#TimesNewRomanPSMT-34"/>
       <use x="50.0" xlink:href="#TimesNewRomanPSMT-30"/>
       <use x="100.0" xlink:href="#TimesNewRomanPSMT-30"/>
      </g>
     </g>
    </g>
    <g id="xtick_4">
     <g id="line2d_10">
      <path clip-path="url(#p9ea7671fb9)" d="
M229.217 313.24
L229.217 12.96" style="fill:none;stroke:#696969;stroke-dasharray:1.000000,3.000000;stroke-dashoffset:0.0;stroke-width:0.5;"/>
     </g>
     <g id="line2d_11">
      <g>
       <use style="stroke:#000000;stroke-width:0.5;" x="229.216507403" xlink:href="#m741efc42ff" y="313.24"/>
      </g>
     </g>
     <g id="line2d_12">
      <g>
       <use style="stroke:#000000;stroke-width:0.5;" x="229.216507403" xlink:href="#m93b0483c22" y="12.96"/>
      </g>
     </g>
     <g id="text_4">
      <!-- 600 -->
      <defs>
       <path d="
M44.8281 67.5781
L44.8281 65.7656
Q38.375 65.1406 34.2969 63.2031
Q30.2188 61.2812 26.2344 57.3281
Q22.2656 53.375 19.6562 48.5156
Q17.0469 43.6562 15.2812 36.9688
Q22.3125 41.7969 29.3906 41.7969
Q36.1875 41.7969 41.1562 36.3281
Q46.1406 30.8594 46.1406 22.2656
Q46.1406 13.9688 41.1094 7.125
Q35.0625 -1.17188 25.0938 -1.17188
Q18.3125 -1.17188 13.5781 3.32812
Q4.29688 12.0625 4.29688 25.9844
Q4.29688 34.8594 7.85938 42.8594
Q11.4219 50.875 18.0312 57.0781
Q24.6562 63.2812 30.7031 65.4219
Q36.7656 67.5781 42 67.5781
z

M14.4531 33.4062
Q13.5781 26.8125 13.5781 22.75
Q13.5781 18.0625 15.3125 12.5625
Q17.0469 7.07812 20.4531 3.85938
Q22.9531 1.5625 26.5156 1.5625
Q30.7656 1.5625 34.1094 5.5625
Q37.4531 9.57812 37.4531 17
Q37.4531 25.3438 34.125 31.4375
Q30.8125 37.5469 24.7031 37.5469
Q22.8594 37.5469 20.7344 36.7656
Q18.6094 35.9844 14.4531 33.4062" id="TimesNewRomanPSMT-36"/>
      </defs>
      <g transform="translate(222.820179278 328.489375)scale(0.09 -0.09)">
       <use xlink:href="#TimesNewRomanPSMT-36"/>
       <use x="50.0" xlink:href="#TimesNewRomanPSMT-30"/>
       <use x="100.0" xlink:href="#TimesNewRomanPSMT-30"/>
      </g>
     </g>
    </g>
    <g id="xtick_5">
     <g id="line2d_13">
      <path clip-path="url(#p9ea7671fb9)" d="
M283.895 313.24
L283.895 12.96" style="fill:none;stroke:#696969;stroke-dasharray:1.000000,3.000000;stroke-dashoffset:0.0;stroke-width:0.5;"/>
     </g>
     <g id="line2d_14">
      <g>
       <use style="stroke:#000000;stroke-width:0.5;" x="283.894893725" xlink:href="#m741efc42ff" y="313.24"/>
      </g>
     </g>
     <g id="line2d_15">
      <g>
       <use style="stroke:#000000;stroke-width:0.5;" x="283.894893725" xlink:href="#m93b0483c22" y="12.96"/>
      </g>
     </g>
     <g id="text_5">
      <!-- 800 -->
      <defs>
       <path d="
M19.1875 33.3438
Q11.3281 39.7969 9.04688 43.7031
Q6.78125 47.6094 6.78125 51.8125
Q6.78125 58.25 11.7656 62.9062
Q16.75 67.5781 25 67.5781
Q33.0156 67.5781 37.8906 63.2344
Q42.7812 58.8906 42.7812 53.3281
Q42.7812 49.6094 40.1406 45.75
Q37.5 41.8906 29.1562 36.6719
Q37.75 30.0312 40.5312 26.2188
Q44.2344 21.2344 44.2344 15.7188
Q44.2344 8.73438 38.9062 3.78125
Q33.5938 -1.17188 24.9531 -1.17188
Q15.5312 -1.17188 10.25 4.73438
Q6.0625 9.46875 6.0625 15.0938
Q6.0625 19.4844 9.01562 23.7969
Q11.9688 28.125 19.1875 33.3438
M26.8594 38.5781
Q32.7188 43.8438 34.2812 46.8906
Q35.8438 49.9531 35.8438 53.8125
Q35.8438 58.9375 32.9531 61.8438
Q30.0781 64.75 25.0938 64.75
Q20.125 64.75 17 61.8594
Q13.875 58.9844 13.875 55.125
Q13.875 52.5938 15.1562 50.0469
Q16.4531 47.5156 18.8438 45.2188
z

M21.4844 31.5
Q17.4375 28.0781 15.4844 24.0469
Q13.5312 20.0156 13.5312 15.3281
Q13.5312 9.03125 16.9688 5.25
Q20.4062 1.46875 25.7344 1.46875
Q31 1.46875 34.1719 4.4375
Q37.3594 7.42188 37.3594 11.6719
Q37.3594 15.1875 35.5 17.9688
Q32.0312 23.1406 21.4844 31.5" id="TimesNewRomanPSMT-38"/>
      </defs>
      <g transform="translate(277.578018725 328.489375)scale(0.09 -0.09)">
       <use xlink:href="#TimesNewRomanPSMT-38"/>
       <use x="50.0" xlink:href="#TimesNewRomanPSMT-30"/>
       <use x="100.0" xlink:href="#TimesNewRomanPSMT-30"/>
      </g>
     </g>
    </g>
    <g id="xtick_6">
     <g id="line2d_16">
      <path clip-path="url(#p9ea7671fb9)" d="
M338.573 313.24
L338.573 12.96" style="fill:none;stroke:#696969;stroke-dasharray:1.000000,3.000000;stroke-dashoffset:0.0;stroke-width:0.5;"/>
     </g>
     <g id="line2d_17">
      <g>
       <use style="stroke:#000000;stroke-width:0.5;" x="338.573280047" xlink:href="#m741efc42ff" y="313.24"/>
      </g>
     </g>
     <g id="line2d_18">
      <g>
       <use style="stroke:#000000;stroke-width:0.5;" x="338.573280047" xlink:href="#m93b0483c22" y="12.96"/>
      </g>
     </g>
     <g id="text_6">
      <!-- 1000 -->
      <defs>
       <path d="
M11.7188 59.7188
L27.8281 67.5781
L29.4375 67.5781
L29.4375 11.6719
Q29.4375 6.10938 29.9062 4.73438
Q30.375 3.375 31.8281 2.64062
Q33.2969 1.90625 37.7969 1.8125
L37.7969 0
L12.8906 0
L12.8906 1.8125
Q17.5781 1.90625 18.9375 2.60938
Q20.3125 3.32812 20.8438 4.51562
Q21.3906 5.71875 21.3906 11.6719
L21.3906 47.4062
Q21.3906 54.6406 20.9062 56.6875
Q20.5625 58.25 19.6562 58.9844
Q18.75 59.7188 17.4844 59.7188
Q15.6719 59.7188 12.4531 58.2031
z
" id="TimesNewRomanPSMT-31"/>
      </defs>
      <g transform="translate(330.260936297 328.489375)scale(0.09 -0.09)">
       <use xlink:href="#TimesNewRomanPSMT-31"/>
       <use x="50.0" xlink:href="#TimesNewRomanPSMT-30"/>
       <use x="100.0" xlink:href="#TimesNewRomanPSMT-30"/>
       <use x="150.0" xlink:href="#TimesNewRomanPSMT-30"/>
      </g>
     </g>
    </g>
    <g id="text_7">
     <!-- Draws -->
     <defs>
      <path d="
M32.0312 46.0469
L32.0312 30.8125
L30.4219 30.8125
Q28.5625 37.9844 25.6562 40.5781
Q22.75 43.1719 18.2656 43.1719
Q14.8438 43.1719 12.7344 41.3594
Q10.6406 39.5469 10.6406 37.3594
Q10.6406 34.625 12.2031 32.6719
Q13.7188 30.6719 18.3594 28.4219
L25.4844 24.9531
Q35.4062 20.125 35.4062 12.2031
Q35.4062 6.10938 30.7812 2.35938
Q26.1719 -1.375 20.4531 -1.375
Q16.3594 -1.375 11.0781 0.09375
Q9.46875 0.59375 8.45312 0.59375
Q7.32812 0.59375 6.6875 -0.6875
L5.07812 -0.6875
L5.07812 15.2812
L6.6875 15.2812
Q8.0625 8.45312 11.9062 4.98438
Q15.7656 1.51562 20.5625 1.51562
Q23.9219 1.51562 26.0469 3.48438
Q28.1719 5.46875 28.1719 8.25
Q28.1719 11.625 25.7969 13.9219
Q23.4375 16.2188 16.3594 19.7344
Q9.28125 23.25 7.07812 26.0781
Q4.89062 28.8594 4.89062 33.1094
Q4.89062 38.625 8.67188 42.3281
Q12.4531 46.0469 18.4531 46.0469
Q21.0938 46.0469 24.8594 44.9219
Q27.3438 44.1875 28.1719 44.1875
Q28.9531 44.1875 29.3906 44.5312
Q29.8281 44.875 30.4219 46.0469
z
" id="TimesNewRomanPSMT-73"/>
      <path d="
M16.2188 46.0469
L16.2188 35.9844
Q21.8281 46.0469 27.7344 46.0469
Q30.4219 46.0469 32.1719 44.4062
Q33.9375 42.7812 33.9375 40.625
Q33.9375 38.7188 32.6562 37.3906
Q31.3906 36.0781 29.6406 36.0781
Q27.9375 36.0781 25.8125 37.7656
Q23.6875 39.4531 22.6562 39.4531
Q21.7812 39.4531 20.75 38.4844
Q18.5625 36.4688 16.2188 31.8906
L16.2188 10.4531
Q16.2188 6.73438 17.1406 4.82812
Q17.7812 3.51562 19.3906 2.64062
Q21 1.76562 24.0312 1.76562
L24.0312 0
L1.125 0
L1.125 1.76562
Q4.54688 1.76562 6.20312 2.82812
Q7.42188 3.60938 7.90625 5.32812
Q8.15625 6.15625 8.15625 10.0625
L8.15625 27.3906
Q8.15625 35.2031 7.82812 36.6875
Q7.51562 38.1875 6.65625 38.8594
Q5.8125 39.5469 4.54688 39.5469
Q3.03125 39.5469 1.125 38.8125
L0.640625 40.5781
L14.1562 46.0469
z
" id="TimesNewRomanPSMT-72"/>
      <path d="
M1.70312 0
L1.70312 1.8125
L4.20312 1.8125
Q8.40625 1.8125 10.1562 4.5
Q11.2344 6.10938 11.2344 11.7188
L11.2344 54.5
Q11.2344 60.6875 9.85938 62.25
Q7.95312 64.4062 4.20312 64.4062
L1.70312 64.4062
L1.70312 66.2188
L28.6562 66.2188
Q43.5 66.2188 51.2344 62.8438
Q58.9844 59.4688 63.6875 51.6094
Q68.4062 43.75 68.4062 33.4531
Q68.4062 19.625 60.0156 10.3594
Q50.5938 0 31.2969 0
z

M20.6094 4.78125
Q26.8125 3.42188 31 3.42188
Q42.3281 3.42188 49.7969 11.375
Q57.2812 19.3438 57.2812 32.9531
Q57.2812 46.6875 49.7969 54.5938
Q42.3281 62.5 30.6094 62.5
Q26.2188 62.5 20.6094 61.0781
z
" id="TimesNewRomanPSMT-44"/>
      <path d="
M0.640625 44.7344
L19.3906 44.7344
L19.3906 42.9219
Q16.7969 42.7188 15.9844 41.9844
Q15.1875 41.2656 15.1875 39.8906
Q15.1875 38.375 16.0156 36.2344
L25.5938 10.5
L35.2031 31.4531
L32.6719 38.0312
Q31.5 40.9688 29.5938 42.0938
Q28.5156 42.7812 25.5938 42.9219
L25.5938 44.7344
L46.875 44.7344
L46.875 42.9219
Q43.3594 42.7812 41.8906 41.6562
Q40.9219 40.875 40.9219 39.1562
Q40.9219 38.1875 41.3125 37.1562
L51.4688 11.4688
L60.8906 36.2344
Q61.8594 38.875 61.8594 40.4375
Q61.8594 41.3594 60.9062 42.0938
Q59.9688 42.8281 57.1719 42.9219
L57.1719 44.7344
L71.2969 44.7344
L71.2969 42.9219
Q67.0469 42.2812 65.0469 37.1562
L50.0938 -1.375
L48.0938 -1.375
L36.9219 27.2031
L23.875 -1.375
L22.0781 -1.375
L7.71875 36.2344
Q6.29688 39.7969 4.92188 41.0312
Q3.5625 42.2812 0.640625 42.9219
z
" id="TimesNewRomanPSMT-77"/>
      <path d="
M28.4688 6.45312
Q21.5781 1.125 19.8281 0.296875
Q17.1875 -0.921875 14.2031 -0.921875
Q9.57812 -0.921875 6.5625 2.25
Q3.5625 5.42188 3.5625 10.5938
Q3.5625 13.875 5.03125 16.2656
Q7.03125 19.5781 11.9844 22.5
Q16.9375 25.4375 28.4688 29.6406
L28.4688 31.3906
Q28.4688 38.0938 26.3438 40.5781
Q24.2188 43.0625 20.1719 43.0625
Q17.0938 43.0625 15.2812 41.4062
Q13.4219 39.75 13.4219 37.5938
L13.5312 34.7656
Q13.5312 32.5156 12.375 31.2969
Q11.2344 30.0781 9.375 30.0781
Q7.5625 30.0781 6.42188 31.3438
Q5.28125 32.625 5.28125 34.8125
Q5.28125 39.0156 9.57812 42.5312
Q13.875 46.0469 21.625 46.0469
Q27.5938 46.0469 31.3906 44.0469
Q34.2812 42.5312 35.6406 39.3125
Q36.5312 37.2031 36.5312 30.7188
L36.5312 15.5312
Q36.5312 9.125 36.7656 7.6875
Q37.0156 6.25 37.5781 5.76562
Q38.1406 5.28125 38.875 5.28125
Q39.6562 5.28125 40.2344 5.60938
Q41.2656 6.25 44.1875 9.1875
L44.1875 6.45312
Q38.7188 -0.875 33.7344 -0.875
Q31.3438 -0.875 29.9219 0.78125
Q28.5156 2.4375 28.4688 6.45312
M28.4688 9.625
L28.4688 26.6562
Q21.0938 23.7344 18.9531 22.5156
Q15.0938 20.3594 13.4219 18.0156
Q11.7656 15.6719 11.7656 12.8906
Q11.7656 9.375 13.8594 7.04688
Q15.9688 4.73438 18.7031 4.73438
Q22.4062 4.73438 28.4688 9.625" id="TimesNewRomanPSMT-61"/>
     </defs>
     <g transform="translate(185.434059016 343.74703125)scale(0.12 -0.12)">
      <use xlink:href="#TimesNewRomanPSMT-44"/>
      <use x="72.216796875" xlink:href="#TimesNewRomanPSMT-72"/>
      <use x="105.517578125" xlink:href="#TimesNewRomanPSMT-61"/>
      <use x="149.90234375" xlink:href="#TimesNewRomanPSMT-77"/>
      <use x="222.119140625" xlink:href="#TimesNewRomanPSMT-73"/>
     </g>
    </g>
   </g>
   <g id="matplotlib.axis_2">
    <g id="ytick_1">
     <g id="line2d_19">
      <path clip-path="url(#p9ea7671fb9)" d="
M57.335 271.487
L344.232 271.487" style="fill:none;stroke:#696969;stroke-dasharray:1.000000,3.000000;stroke-dashoffset:0.0;stroke-width:0.5;"/>
     </g>
     <g id="line2d_20">
      <defs>
       <path d="
M0 0
L-4 0" id="mcb0005524f" style="stroke:#000000;stroke-width:0.5;"/>
      </defs>
      <g>
       <use style="stroke:#000000;stroke-width:0.5;" x="57.335" xlink:href="#mcb0005524f" y="271.486546349"/>
      </g>
     </g>
     <g id="line2d_21">
      <defs>
       <path d="
M0 0
L4 0" id="m728421d6d4" style="stroke:#000000;stroke-width:0.5;"/>
      </defs>
      <g>
       <use style="stroke:#000000;stroke-width:0.5;" x="344.232493032" xlink:href="#m728421d6d4" y="271.486546349"/>
      </g>
     </g>
     <g id="text_8">
      <!-- 0.940 -->
      <defs>
       <path d="
M5.28125 -1.375
L5.28125 0.4375
Q11.625 0.53125 17.0938 3.39062
Q22.5625 6.25 27.6562 13.375
Q32.7656 20.5156 34.7656 29.0469
Q27.0938 24.125 20.9062 24.125
Q13.9219 24.125 8.9375 29.5156
Q3.95312 34.9062 3.95312 43.8438
Q3.95312 52.5469 8.9375 59.3281
Q14.9375 67.5781 24.6094 67.5781
Q32.7656 67.5781 38.5781 60.8438
Q45.7031 52.4844 45.7031 40.2344
Q45.7031 29.2031 40.2812 19.6562
Q34.8594 10.1094 25.2031 3.8125
Q17.3281 -1.375 8.0625 -1.375
z

M35.5469 32.6719
Q36.4219 39.0156 36.4219 42.8281
Q36.4219 47.5625 34.8125 53.0469
Q33.2031 58.5469 30.25 61.4688
Q27.2969 64.4062 23.5312 64.4062
Q19.1875 64.4062 15.9062 60.5
Q12.6406 56.5938 12.6406 48.875
Q12.6406 38.5781 17 32.7656
Q20.1719 28.5625 24.8125 28.5625
Q27.0469 28.5625 30.125 29.6406
Q33.2031 30.7188 35.5469 32.6719" id="TimesNewRomanPSMT-39"/>
       <path d="
M12.5 9.46875
Q14.7969 9.46875 16.3594 7.875
Q17.9219 6.29688 17.9219 4.04688
Q17.9219 1.8125 16.3281 0.21875
Q14.75 -1.375 12.5 -1.375
Q10.25 -1.375 8.65625 0.21875
Q7.07812 1.8125 7.07812 4.04688
Q7.07812 6.34375 8.65625 7.90625
Q10.25 9.46875 12.5 9.46875" id="TimesNewRomanPSMT-2e"/>
      </defs>
      <g transform="translate(28.73046875 273.648655724)scale(0.09 -0.09)">
       <use xlink:href="#TimesNewRomanPSMT-30"/>
       <use x="50.0" xlink:href="#TimesNewRomanPSMT-2e"/>
       <use x="75.0" xlink:href="#TimesNewRomanPSMT-39"/>
       <use x="125.0" xlink:href="#TimesNewRomanPSMT-34"/>
       <use x="175.0" xlink:href="#TimesNewRomanPSMT-30"/>
      </g>
     </g>
    </g>
    <g id="ytick_2">
     <g id="line2d_22">
      <path clip-path="url(#p9ea7671fb9)" d="
M57.335 193.892
L344.232 193.892" style="fill:none;stroke:#696969;stroke-dasharray:1.000000,3.000000;stroke-dashoffset:0.0;stroke-width:0.5;"/>
     </g>
     <g id="line2d_23">
      <g>
       <use style="stroke:#000000;stroke-width:0.5;" x="57.335" xlink:href="#mcb0005524f" y="193.891632486"/>
      </g>
     </g>
     <g id="line2d_24">
      <g>
       <use style="stroke:#000000;stroke-width:0.5;" x="344.232493032" xlink:href="#m728421d6d4" y="193.891632486"/>
      </g>
     </g>
     <g id="text_9">
      <!-- 0.945 -->
      <defs>
       <path d="
M43.4062 66.2188
L39.5938 57.9062
L19.6719 57.9062
L15.3281 49.0312
Q28.2656 47.125 35.8438 39.4062
Q42.3281 32.7656 42.3281 23.7812
Q42.3281 18.5625 40.2031 14.1094
Q38.0938 9.67188 34.8594 6.54688
Q31.6406 3.42188 27.6875 1.51562
Q22.0781 -1.17188 16.1562 -1.17188
Q10.2031 -1.17188 7.48438 0.84375
Q4.78125 2.875 4.78125 5.32812
Q4.78125 6.6875 5.90625 7.73438
Q7.03125 8.79688 8.73438 8.79688
Q10.0156 8.79688 10.9688 8.40625
Q11.9219 8.01562 14.2031 6.39062
Q17.875 3.85938 21.625 3.85938
Q27.3438 3.85938 31.6562 8.17188
Q35.9844 12.5 35.9844 18.7031
Q35.9844 24.7031 32.125 29.9062
Q28.2656 35.1094 21.4844 37.9375
Q16.1562 40.1406 6.98438 40.4844
L19.6719 66.2188
z
" id="TimesNewRomanPSMT-35"/>
      </defs>
      <g transform="translate(29.00328125 196.053741861)scale(0.09 -0.09)">
       <use xlink:href="#TimesNewRomanPSMT-30"/>
       <use x="50.0" xlink:href="#TimesNewRomanPSMT-2e"/>
       <use x="75.0" xlink:href="#TimesNewRomanPSMT-39"/>
       <use x="125.0" xlink:href="#TimesNewRomanPSMT-34"/>
       <use x="175.0" xlink:href="#TimesNewRomanPSMT-35"/>
      </g>
     </g>
    </g>
    <g id="ytick_3">
     <g id="line2d_25">
      <path clip-path="url(#p9ea7671fb9)" d="
M57.335 116.297
L344.232 116.297" style="fill:none;stroke:#696969;stroke-dasharray:1.000000,3.000000;stroke-dashoffset:0.0;stroke-width:0.5;"/>
     </g>
     <g id="line2d_26">
      <g>
       <use style="stroke:#000000;stroke-width:0.5;" x="57.335" xlink:href="#mcb0005524f" y="116.296718622"/>
      </g>
     </g>
     <g id="line2d_27">
      <g>
       <use style="stroke:#000000;stroke-width:0.5;" x="344.232493032" xlink:href="#m728421d6d4" y="116.296718622"/>
      </g>
     </g>
     <g id="text_10">
      <!-- 0.950 -->
      <g transform="translate(28.73046875 118.458827997)scale(0.09 -0.09)">
       <use xlink:href="#TimesNewRomanPSMT-30"/>
       <use x="50.0" xlink:href="#TimesNewRomanPSMT-2e"/>
       <use x="75.0" xlink:href="#TimesNewRomanPSMT-39"/>
       <use x="125.0" xlink:href="#TimesNewRomanPSMT-35"/>
       <use x="175.0" xlink:href="#TimesNewRomanPSMT-30"/>
      </g>
     </g>
    </g>
    <g id="ytick_4">
     <g id="line2d_28">
      <path clip-path="url(#p9ea7671fb9)" d="
M57.335 38.7018
L344.232 38.7018" style="fill:none;stroke:#696969;stroke-dasharray:1.000000,3.000000;stroke-dashoffset:0.0;stroke-width:0.5;"/>
     </g>
     <g id="line2d_29">
      <g>
       <use style="stroke:#000000;stroke-width:0.5;" x="57.335" xlink:href="#mcb0005524f" y="38.701804758"/>
      </g>
     </g>
     <g id="line2d_30">
      <g>
       <use style="stroke:#000000;stroke-width:0.5;" x="344.232493032" xlink:href="#m728421d6d4" y="38.701804758"/>
      </g>
     </g>
     <g id="text_11">
      <!-- 0.955 -->
      <g transform="translate(29.00328125 40.863914133)scale(0.09 -0.09)">
       <use xlink:href="#TimesNewRomanPSMT-30"/>
       <use x="50.0" xlink:href="#TimesNewRomanPSMT-2e"/>
       <use x="75.0" xlink:href="#TimesNewRomanPSMT-39"/>
       <use x="125.0" xlink:href="#TimesNewRomanPSMT-35"/>
       <use x="175.0" xlink:href="#TimesNewRomanPSMT-35"/>
      </g>
     </g>
    </g>
    <g id="text_12">
     <!-- Area -->
     <defs>
      <path d="
M45.75 22.1719
L20.125 22.1719
L15.625 11.7188
Q13.9688 7.85938 13.9688 5.95312
Q13.9688 4.4375 15.4062 3.29688
Q16.8438 2.15625 21.625 1.8125
L21.625 0
L0.78125 0
L0.78125 1.8125
Q4.9375 2.54688 6.15625 3.71875
Q8.64062 6.0625 11.6719 13.2344
L34.9688 67.7188
L36.6719 67.7188
L59.7188 12.6406
Q62.5 6 64.7656 4.01562
Q67.0469 2.04688 71.0938 1.8125
L71.0938 0
L44.9688 0
L44.9688 1.8125
Q48.9219 2 50.3125 3.125
Q51.7031 4.25 51.7031 5.85938
Q51.7031 8.01562 49.75 12.6406
z

M44.3906 25.7812
L33.1562 52.5469
L21.625 25.7812
z
" id="TimesNewRomanPSMT-41"/>
      <path d="
M10.6406 27.875
Q10.5938 17.9219 15.4844 12.25
Q20.3594 6.59375 26.9531 6.59375
Q31.3438 6.59375 34.5938 9
Q37.8438 11.4219 40.0469 17.2812
L41.5469 16.3125
Q40.5312 9.625 35.5938 4.125
Q30.6719 -1.375 23.25 -1.375
Q15.1875 -1.375 9.45312 4.90625
Q3.71875 11.1875 3.71875 21.7812
Q3.71875 33.25 9.59375 39.6719
Q15.4844 46.0938 24.3594 46.0938
Q31.8906 46.0938 36.7188 41.1406
Q41.5469 36.1875 41.5469 27.875
z

M10.6406 30.7188
L31.3438 30.7188
Q31.1094 35.0156 30.3281 36.7656
Q29.1094 39.5 26.6875 41.0625
Q24.2656 42.625 21.625 42.625
Q17.5781 42.625 14.375 39.4688
Q11.1875 36.3281 10.6406 30.7188" id="TimesNewRomanPSMT-65"/>
     </defs>
     <g transform="translate(21.16359375 174.69875)rotate(-90.0)scale(0.12 -0.12)">
      <use xlink:href="#TimesNewRomanPSMT-41"/>
      <use x="72.216796875" xlink:href="#TimesNewRomanPSMT-72"/>
      <use x="105.517578125" xlink:href="#TimesNewRomanPSMT-65"/>
      <use x="149.90234375" xlink:href="#TimesNewRomanPSMT-61"/>
     </g>
    </g>
   </g>
   <g id="line2d_31">
    <path clip-path="url(#p9ea7671fb9)" d="
M65.4547 100.778
L65.7281 73.9722
L66.0015 51.6343
L66.5483 304.742
L67.0951 77.4993
L67.3685 107.168
L67.6419 21.4585
L68.4621 249.317
L68.7354 137.459
L69.0088 116.297
L69.2822 71.033
L69.5556 165.957
L69.829 181.954
L70.1024 70.3145
L70.3758 127.382
L70.6492 73.4857
L70.9226 105.951
L71.196 216.419
L71.4694 135.695
L71.7428 271.487
L72.0161 43.2662
L72.2895 32.0508
L72.5629 47.3235
L73.1097 124.465
L73.9299 146.578
L74.2033 160.637
L74.4767 87.4242
L74.7501 137.459
L75.0235 123.194
L75.5702 152.618
L75.8436 203.591
L76.117 151.135
L76.3904 150.438
L76.6638 58.4809
L76.9372 134.203
L77.2106 163.146
L77.484 119.171
L77.7574 127.583
L78.0308 182.807
L78.3042 181.64
L78.5776 161.783
L78.8509 126.818
L79.1243 170.613
L79.3977 47.6061
L79.6711 106.284
L79.9445 96.5901
L80.2179 109.022
L80.4913 63.7709
L81.0381 125.562
L81.3115 120.861
L81.5849 123.044
L81.8583 109.646
L82.1316 142.526
L82.405 45.168
L82.6784 86.5343
L82.9518 53.3819
L83.2252 91.4663
L83.4986 171.43
L83.772 80.0186
L84.0454 66.5564
L84.3188 141.834
L84.5922 145.395
L84.8656 62.6509
L85.139 142.793
L85.6857 125.534
L85.9591 99.8649
L86.2325 54.9426
L86.5059 148.405
L86.7793 89.8439
L87.0527 107.578
L87.3261 52.4965
L87.5995 46.376
L87.8729 35.3281
L88.1463 136.321
L88.4197 187.288
L88.6931 72.1901
L89.2398 149.895
L89.5132 178.056
L89.7866 133.54
L90.06 139.575
L90.3334 139.345
L90.6068 117.818
L90.8802 137.39
L91.1536 128.234
L91.427 139.945
L91.7004 75.3032
L91.9738 135.152
L92.2471 101.927
L92.5205 114.873
L92.7939 160.032
L93.3407 78.8849
L93.6141 152.004
L93.8875 71.3733
L94.1609 54.2208
L94.4343 74.8236
L94.7077 53.9555
L94.9811 112.351
L95.2545 112.384
L95.5279 120.176
L95.8012 139.383
L96.0746 60.3266
L96.348 69.6136
L96.6214 160.1
L96.8948 164.716
L97.4416 67.418
L97.715 85.9862
L97.9884 66.9728
L98.2618 92.4214
L98.5352 132.882
L98.8086 90.4317
L99.0819 90.6262
L99.3553 108.19
L99.6287 84.1092
L99.9021 126.567
L100.176 103.836
L100.449 93.8054
L100.722 136.393
L100.996 138.467
L101.269 142.712
L101.816 100.018
L102.089 39.7795
L102.363 145.194
L102.636 186.451
L102.909 113.13
L103.183 168.726
L103.456 110.047
L103.73 97.6739
L104.276 141.821
L104.55 93.9818
L104.823 98.1576
L105.097 81.2539
L105.37 166.037
L105.643 125.193
L105.917 137.905
L106.464 98.8379
L106.737 165.456
L107.01 96.1795
L107.284 104.872
L107.557 73.7141
L107.83 157.681
L108.104 89.1852
L108.377 148.822
L108.651 106.135
L108.924 130.071
L109.471 109.036
L109.744 207.426
L110.018 121.679
L110.291 85.9723
L110.564 96.7871
L110.838 85.4351
L111.111 140.847
L111.385 155.53
L111.931 87.8453
L112.205 135.16
L112.478 79.631
L112.752 132.409
L113.025 116.297
L113.298 112.941
L113.572 65.4011
L113.845 97.2092
L114.119 108.867
L114.665 86.8923
L115.212 143.778
L115.485 98.6067
L116.032 127.439
L116.306 165.387
L116.852 102.189
L117.126 60.9275
L117.399 138.799
L117.946 93.2487
L118.219 106.358
L118.493 133.794
L118.766 176.859
L119.313 105.801
L119.86 155.651
L120.133 113.341
L120.407 121.445
L120.68 151.434
L120.953 101.725
L121.227 108.32
L121.5 152.387
L121.773 121.326
L122.047 134.891
L122.32 102.059
L122.594 104.959
L122.867 100.778
L123.14 111.381
L123.414 91.1308
L123.961 154.401
L124.507 97.0697
L124.781 151.163
L125.328 95.2885
L125.601 81.8851
L125.874 174.745
L126.148 140.378
L126.968 91.2022
L127.241 114.982
L127.515 97.9621
L127.788 147.596
L128.061 89.0249
L128.335 86.552
L128.608 95.0467
L128.882 94.4932
L129.155 95.8602
L129.428 139.194
L129.702 139.734
L129.975 112.512
L130.249 117.553
L130.522 97.5238
L130.795 130.008
L131.069 77.1889
L131.616 115.065
L131.889 95.4412
L132.162 130.349
L132.436 139.423
L132.709 123.571
L132.983 85.5003
L133.256 117.5
L133.529 101.317
L133.803 141.963
L134.076 145.432
L134.35 103.266
L134.623 104.495
L134.896 82.7898
L135.443 130.882
L135.716 87.8162
L135.99 113.401
L136.263 98.9893
L136.537 151.933
L136.81 125.459
L137.083 119.149
L137.357 96.969
L137.63 117.996
L137.904 114.604
L138.177 102.24
L138.724 137.51
L138.997 96.2722
L139.271 136.25
L139.544 136.179
L140.091 114.652
L140.638 156.592
L140.911 112.498
L141.184 87.638
L141.458 103.364
L141.731 130.795
L142.004 144.659
L142.278 76.2993
L142.551 122.674
L142.825 92.9918
L143.098 144.273
L143.371 79.472
L143.645 116.297
L143.918 100.098
L144.192 91.2997
L144.465 109.549
L144.738 97.6739
L145.012 115.781
L145.285 120.922
L145.559 101.956
L145.832 115.786
L146.105 118.841
L146.379 129.99
L146.652 114.78
L146.926 162.148
L147.199 85.1583
L147.472 116.297
L147.746 105.818
L148.019 105.354
L148.292 116.297
L148.566 102.458
L148.839 136.496
L149.113 152.639
L149.386 95.7353
L149.659 119.713
L149.933 90.5128
L150.206 132.786
L150.48 123.065
L151.026 135.515
L151.3 123.002
L151.573 145.902
L151.847 129.15
L152.12 122.941
L152.393 91.6935
L152.667 118.655
L152.94 90.902
L153.214 127.549
L153.487 118.166
L153.76 136.802
L154.034 109.792
L154.307 140.386
L155.127 104.818
L155.674 143.683
L156.221 104.952
L156.768 101.86
L157.041 98.7535
L157.314 101.495
L157.861 125.216
L158.135 129.192
L158.408 120.287
L158.681 88
L158.955 140.986
L159.228 122.891
L159.502 133.832
L159.775 121.543
L160.048 135.477
L160.322 103.69
L160.595 118.464
L160.869 148.286
L161.142 112.848
L161.415 161.005
L161.689 137.732
L161.962 102.616
L162.235 126.529
L162.509 115.872
L162.782 119.265
L163.056 120.102
L163.329 111.658
L163.602 142.372
L164.149 96.6366
L164.423 125.057
L164.696 96.742
L164.969 100.114
L165.243 155.198
L165.516 94.8343
L165.79 110.945
L166.063 119.581
L166.336 99.0989
L166.61 94.2434
L166.883 106.928
L167.157 106.14
L167.43 125.616
L167.703 113.064
L167.977 111.863
L168.25 129.564
L168.797 87.8986
L169.07 127.068
L169.344 111.522
L169.617 106.771
L169.89 115.505
L170.164 139.2
L170.437 101.723
L170.711 96.2596
L171.257 123.333
L171.531 112.397
L171.804 109.296
L172.078 146.559
L172.351 136.034
L172.624 102.013
L172.898 90.1108
L173.171 97.0901
L173.445 129.325
L173.718 112.474
L173.991 118.585
L174.265 96.898
L174.812 152.255
L175.085 97.0396
L175.358 144.924
L175.632 113.666
L175.905 115.922
L176.178 124.524
L176.452 95.0327
L176.725 122.251
L176.999 111.842
L177.545 131.816
L177.819 131.779
L178.092 118.871
L178.366 123.267
L178.639 120.689
L178.912 126.521
L179.186 103.911
L179.459 119.931
L180.006 102.55
L180.279 113.77
L180.553 93.9724
L180.826 113.782
L181.1 89.4163
L181.373 120.588
L181.646 95.6047
L182.193 140.09
L182.466 92.912
L182.74 121.953
L183.013 118.413
L183.287 117.704
L183.56 126.479
L183.833 128.558
L184.107 100.568
L184.38 125.713
L184.654 112.121
L184.927 141.988
L185.2 145.048
L185.474 116.988
L185.747 101.812
L186.021 121.458
L186.294 124.194
L186.567 100.538
L186.841 107.409
L187.114 107.088
L187.388 112.893
L187.661 108.486
L187.934 135.611
L188.481 113.935
L188.755 114.95
L189.028 111.93
L189.301 112.945
L189.575 90.2088
L189.848 144.665
L190.121 128.286
L190.395 133.245
L190.942 58.3901
L191.215 109.033
L191.488 120.251
L191.762 113.666
L192.035 98.5795
L192.309 123.172
L192.582 109.436
L192.855 109.776
L193.129 106.536
L193.402 93.2455
L193.676 128.284
L193.949 82.6723
L194.496 126.6
L194.769 135.575
L195.043 107.319
L195.316 108.937
L195.589 107.356
L195.863 112.791
L196.136 100.396
L196.409 119.47
L196.683 109.012
L196.956 103.654
L197.23 121.659
L197.503 115.038
L197.776 91.1648
L198.05 99.3669
L198.323 100.965
L198.597 117.858
L198.87 105.39
L199.143 118.474
L199.417 98.6051
L199.69 106.075
L199.964 99.9121
L200.237 139.128
L200.51 77.4993
L200.784 111.073
L201.057 107.402
L201.331 93.3396
L201.877 120.26
L202.151 100.169
L202.424 96.86
L202.697 105.082
L202.971 97.2383
L203.518 127.748
L203.791 106.673
L204.338 118.394
L204.611 93.5714
L204.885 87.3478
L205.158 125.531
L205.431 128.783
L205.705 113.329
L205.978 126.959
L206.525 94.759
L206.798 141.327
L207.072 94.5466
L207.345 121.871
L207.619 92.2862
L207.892 110.159
L208.165 140.8
L208.439 136.969
L208.712 135.187
L208.986 122.388
L209.259 115.139
L209.532 117.453
L209.806 127.547
L210.079 113.13
L210.352 138.426
L210.626 113.141
L210.899 75.6381
L211.173 126.014
L211.446 93.76
L211.993 125.961
L212.266 103.246
L212.54 156.793
L212.813 121.385
L213.086 114.604
L213.36 143.054
L213.633 89.8695
L213.907 125.838
L214.18 137.586
L214.453 108.467
L214.727 124.67
L215 97.0721
L215.274 117.409
L215.547 93.2542
L215.82 110.754
L216.094 98.869
L216.367 119.058
L216.64 121.258
L216.914 144.913
L217.187 118.769
L217.461 108.894
L217.734 114.107
L218.007 111.652
L218.281 89.2953
L218.554 147.062
L219.101 98.9328
L219.374 139.047
L219.648 127.382
L219.921 94.7051
L220.195 120.069
L220.468 91.2835
L220.741 130.258
L221.015 118.709
L221.288 89.5399
L221.562 122.707
L221.835 137.362
L222.108 134.93
L222.382 122.674
L222.655 101.441
L222.928 163.701
L223.202 114.446
L223.475 119.992
L223.749 112.871
L224.022 132.342
L224.295 130.476
L224.569 136.22
L225.389 109.254
L225.662 102.496
L225.936 130.594
L226.209 84.8954
L226.483 111.115
L226.756 125.349
L227.029 119.912
L227.303 101.86
L227.576 97.2519
L228.123 137.074
L228.396 133.199
L228.67 109.649
L228.943 122.678
L229.217 117.061
L229.49 103.831
L230.037 120.354
L230.31 109.461
L230.583 118.319
L230.857 116.044
L231.13 124.107
L231.404 103.469
L231.677 99.9742
L231.95 112.787
L232.224 111.791
L232.497 112.048
L232.771 128.023
L233.044 99.3579
L233.317 124.753
L233.591 130.202
L233.864 93.9851
L234.138 112.089
L234.411 113.331
L234.684 113.089
L235.231 132.529
L235.505 129.311
L236.051 95.2457
L236.325 110.431
L236.598 137.037
L236.871 103.141
L237.145 105.594
L237.418 125.526
L237.965 104.918
L238.238 101.551
L238.512 108.815
L238.785 122.803
L239.059 146.853
L239.332 92.9942
L239.605 98.0673
L239.879 135.935
L240.152 133.035
L240.426 113.193
L240.699 118.919
L240.972 104.872
L241.246 116.059
L241.519 118.67
L241.793 128.143
L242.066 107.307
L242.339 124.564
L242.613 120.778
L242.886 130.897
L243.159 120.294
L243.433 115.358
L243.706 114.656
L243.98 109.275
L244.526 89.6927
L244.8 131.909
L245.073 128.163
L245.347 135.579
L245.62 124.88
L245.893 103.557
L246.167 117.684
L246.44 109.6
L246.987 121.132
L247.26 118.596
L247.534 140.861
L247.807 124.32
L248.081 96.6119
L248.354 138.01
L248.627 116.525
L248.901 132.021
L249.174 126.764
L249.448 99.4826
L249.721 118.566
L249.994 126.265
L250.268 123.762
L250.541 109.068
L250.814 112.688
L251.088 111.116
L251.361 106.625
L251.635 118.093
L251.908 110.242
L252.181 139.139
L252.455 112.942
L252.728 107.142
L253.002 112.06
L253.275 120.527
L253.548 107.403
L253.822 102.31
L254.095 134.698
L254.369 94.3798
L254.642 94.632
L255.189 129.082
L255.462 121.14
L255.736 109.702
L256.009 103.565
L256.282 114.762
L256.556 117.829
L256.829 123.947
L257.102 97.3072
L257.649 117.167
L257.923 104.56
L258.196 110.002
L258.469 119.765
L258.743 81.2329
L259.016 99.4377
L259.29 126.441
L259.563 119.745
L259.836 102.952
L260.383 137.976
L260.657 126.157
L260.93 134.277
L261.203 113.304
L261.477 117.364
L261.75 100.309
L262.297 136.28
L262.57 123.939
L262.844 119.901
L263.117 123.919
L263.39 112.914
L263.664 136.355
L263.937 104.7
L264.211 112.085
L264.484 129.755
L264.757 94.6667
L265.031 141.253
L265.304 121.742
L265.578 118.807
L265.851 131.335
L266.124 127.143
L266.398 135.253
L266.671 136.476
L267.218 107.79
L267.491 113.396
L267.765 96.0186
L268.038 101.418
L268.312 130.536
L268.585 91.7714
L268.858 110.122
L269.132 99.2361
L269.405 113.423
L269.679 114.862
L269.952 126.943
L270.225 119.773
L270.499 131.612
L270.772 120.171
L271.045 120.574
L271.319 123.619
L271.592 109.797
L271.866 129.483
L272.139 116.499
L272.412 128.234
L272.686 125.996
L272.959 106.812
L273.506 131.594
L273.779 126.147
L274.053 104.652
L274.326 122.713
L274.6 113.894
L274.873 114.697
L275.146 132.475
L275.693 116.894
L275.967 116.496
L276.24 117.092
L276.513 134.951
L276.787 115.108
L277.06 127.184
L277.333 106.017
L277.607 119.258
L277.88 119.452
L278.154 123.19
L278.427 99.9713
L278.7 121.208
L278.974 109.038
L279.247 129.229
L279.521 93.3999
L279.794 129.392
L280.067 103.999
L280.341 114.542
L280.614 101.693
L280.888 110.657
L281.161 108.139
L281.434 116.685
L281.708 135.865
L281.981 117.264
L282.255 136.396
L282.528 105.101
L282.801 111.863
L283.075 122.458
L283.622 111.687
L283.895 115.721
L284.168 126.26
L284.715 87.6286
L284.988 114.77
L285.262 129.452
L285.535 127.912
L285.809 110.401
L286.082 127.314
L286.355 114.21
L286.629 126.15
L286.902 119.325
L287.176 98.1503
L287.449 121.394
L287.722 131.382
L287.996 117.615
L288.269 111.218
L288.543 120.994
L288.816 118.924
L289.089 115.922
L289.363 118.918
L289.636 106.948
L289.91 107.333
L290.183 134.576
L290.456 121.699
L290.73 126.717
L291.003 120.757
L291.276 107.201
L291.55 100.722
L291.823 121.482
L292.097 122.401
L292.37 115.558
L292.643 121.095
L292.917 88.2815
L293.19 117.769
L293.464 118.687
L293.737 123.643
L294.01 132.806
L294.284 113.365
L294.557 108.244
L294.831 120.318
L295.104 104.794
L295.377 105.902
L295.651 83.328
L295.924 104.835
L296.471 119.019
L296.744 114.302
L297.018 127.886
L297.291 110.328
L297.564 120.813
L297.838 124.417
L298.111 108.907
L298.658 133.021
L298.931 127.792
L299.205 108.582
L299.478 116.118
L299.752 107.526
L300.025 113.436
L300.298 127.905
L300.572 95.248
L300.845 115.406
L301.119 117.72
L301.392 109.364
L301.665 111.68
L301.939 121.085
L302.212 96.4551
L302.486 118.243
L302.759 115.943
L303.032 102.173
L303.306 123.527
L303.579 107.489
L304.126 121.745
L304.399 104.886
L304.673 126.292
L304.946 115.946
L305.219 115.597
L305.493 140.938
L306.313 103.234
L306.586 112.643
L306.86 117.861
L307.133 101.889
L307.407 116.644
L307.68 106.078
L307.953 105.916
L308.227 126.32
L308.5 124.755
L308.774 114.055
L309.047 112.68
L309.32 106.318
L309.594 110.797
L309.867 111.662
L310.141 97.6053
L310.414 135.824
L310.687 129.472
L310.961 127.577
L311.234 118.004
L311.507 134.374
L311.781 117.319
L312.054 128.208
L312.328 99.2989
L312.601 113.58
L312.874 112.735
L313.148 116.466
L313.421 104.45
L313.695 97.701
L313.968 114.101
L314.241 120.008
L314.515 131.799
L314.788 109.564
L315.062 107.722
L315.335 130.405
L315.608 109.586
L315.882 112.61
L316.155 122.491
L316.429 138.371
L316.702 104.102
L316.975 125.475
L317.249 136.466
L317.522 98.4799
L317.795 117.627
L318.069 122.943
L318.342 103.516
L318.616 130.721
L318.889 104.041
L319.162 105.212
L319.436 113.322
L319.709 111.509
L320.256 125.522
L320.529 128.475
L320.803 101.501
L321.076 141.094
L321.35 114.164
L321.623 126.785
L321.896 131.521
L322.17 125.127
L322.443 89.8328
L322.717 117.602
L322.99 105.864
L323.263 118.902
L323.537 99.7041
L323.81 123.447
L324.084 116.946
L324.357 80.9452
L324.904 126.168
L325.45 104.185
L325.724 131.461
L325.997 127.9
L326.271 110.018
L326.544 117.905
L326.817 106.336
L327.091 110.038
L327.364 134.253
L327.638 104.605
L327.911 100.138
L328.184 111.502
L328.458 131.624
L328.731 121.879
L329.005 123.148
L329.551 99.1241
L329.825 135.993
L330.372 108.529
L330.645 131.341
L330.918 109.494
L331.192 127.359
L331.465 108.403
L332.285 123.852
L332.559 112.051
L332.832 124.15
L333.379 107.675
L333.652 121.934
L333.926 122.085
L334.472 111.145
L334.746 111.15
L335.019 114.583
L335.293 111.16
L335.566 119.873
L335.839 117.85
L336.113 105.744
L336.113 105.744" style="fill:none;stroke:#efdecd;stroke-linecap:square;"/>
   </g>
   <g id="patch_3">
    <path d="
M57.335 12.96
L344.232 12.96" style="fill:none;stroke:#000000;"/>
   </g>
   <g id="patch_4">
    <path d="
M344.232 313.24
L344.232 12.96" style="fill:none;stroke:#000000;"/>
   </g>
   <g id="patch_5">
    <path d="
M57.335 313.24
L344.232 313.24" style="fill:none;stroke:#000000;"/>
   </g>
   <g id="patch_6">
    <path d="
M57.335 313.24
L57.335 12.96" style="fill:none;stroke:#000000;"/>
   </g>
  </g>
 </g>
 <defs>
  <clipPath id="p9ea7671fb9">
   <rect height="300.28" width="286.897493032" x="57.335" y="12.96"/>
  </clipPath>
 </defs>
</svg>
